<svg width="162" height="26" viewBox="0 0 162 26" fill="none" xmlns="http://www.w3.org/2000/svg">
<path d="M0.339036 10.0096L12.3764 0.204311C12.7098 -0.0672468 13.1857 -0.0681957 13.5201 0.202031L25.6582 10.0096C25.8742 10.1842 26 10.4483 26 10.7276V15.1756C26 15.452 25.8768 15.7137 25.6644 15.8884L13.627 25.7928C13.2924 26.0682 12.8121 26.0691 12.4764 25.7951L0.338358 15.8885C0.124343 15.7138 0 15.451 0 15.1734V10.7253C0 10.4474 0.124618 10.1843 0.339036 10.0096Z" fill="#BBCCF0" fill-opacity="0.67"/>
<path d="M23.2653 11.8966V13.4033H17.5042V11.8966H23.2653ZM18.0683 7.7045V17.8605H16V7.7045H18.0683ZM24.7996 7.7045V17.8605H22.7313V7.7045H24.7996Z" fill="#2E55A5"/>
<path d="M32.1657 9.24604L29.0445 17.8605H26.8559L30.9473 7.7045H32.3462L32.1657 9.24604ZM34.7755 17.8605L31.6393 9.24604L31.4512 7.7045H32.8577L36.9717 17.8605H34.7755ZM34.6326 14.0869V15.6005H28.7587V14.0869H34.6326Z" fill="#2E55A5"/>
<path d="M41.0736 7.7045V17.8605H39.0054V7.7045H41.0736Z" fill="#2E55A5"/>
<path d="M52.8952 14.1566H50.0748V12.65H52.8952C53.3565 12.65 53.7301 12.5802 54.0159 12.4407C54.3067 12.2966 54.5198 12.1012 54.6551 11.8548C54.7905 11.6037 54.8582 11.3177 54.8582 10.9968C54.8582 10.6853 54.7905 10.3946 54.6551 10.1249C54.5198 9.85521 54.3067 9.63665 54.0159 9.46925C53.7301 9.30184 53.3565 9.21814 52.8952 9.21814H50.7517V17.8605H48.6834V7.7045H52.8952C53.7476 7.7045 54.4746 7.84633 55.0763 8.12999C55.683 8.409 56.1443 8.79729 56.4602 9.29486C56.7811 9.78778 56.9415 10.3505 56.9415 10.9829C56.9415 11.6386 56.7811 12.2036 56.4602 12.6779C56.1443 13.1522 55.683 13.5172 55.0763 13.773C54.4746 14.0287 53.7476 14.1566 52.8952 14.1566Z" fill="#2E55A5"/>
<path d="M61.2917 7.14648V17.8605H59.2986V7.14648H61.2917Z" fill="#2E55A5"/>
<path d="M68.4397 16.2562V12.7755C68.4397 12.5198 68.3921 12.2989 68.2968 12.1129C68.2015 11.9269 68.0561 11.7827 67.8606 11.6804C67.665 11.5781 67.4168 11.5269 67.116 11.5269C66.8503 11.5269 66.6171 11.5688 66.4165 11.6525C66.221 11.7362 66.0706 11.8548 65.9653 12.0082C65.86 12.157 65.8073 12.3291 65.8073 12.5244H63.8143C63.8143 12.2129 63.8945 11.9176 64.0549 11.6386C64.2154 11.3549 64.4435 11.1038 64.7394 10.8852C65.0402 10.662 65.3987 10.4876 65.8149 10.3621C66.236 10.2365 66.7074 10.1737 67.2288 10.1737C67.8455 10.1737 68.3946 10.2714 68.8759 10.4667C69.3623 10.6574 69.7434 10.9457 70.0191 11.3316C70.2999 11.7176 70.4403 12.2036 70.4403 12.7895V16.0818C70.4403 16.4585 70.4654 16.7817 70.5155 17.0514C70.5707 17.3164 70.6509 17.5466 70.7562 17.7419V17.8605H68.733C68.6378 17.6698 68.5651 17.428 68.5149 17.1351C68.4648 16.8375 68.4397 16.5445 68.4397 16.2562ZM68.718 13.2638L68.733 14.3589H67.477C67.1661 14.3589 66.8929 14.3891 66.6572 14.4496C66.4216 14.5054 66.2285 14.5891 66.0781 14.7007C65.9277 14.8077 65.8149 14.9379 65.7397 15.0913C65.6644 15.2401 65.6268 15.4098 65.6268 15.6005C65.6268 15.7865 65.672 15.9539 65.7622 16.1027C65.8575 16.2515 65.9929 16.3701 66.1684 16.4585C66.3489 16.5422 66.5594 16.584 66.8001 16.584C67.1511 16.584 67.457 16.5189 67.7177 16.3887C67.9784 16.2539 68.1815 16.0911 68.3269 15.9004C68.4723 15.7098 68.55 15.5284 68.56 15.3564L69.1316 16.1516C69.0614 16.3422 68.9562 16.5445 68.8158 16.7584C68.6754 16.9723 68.4949 17.1723 68.2742 17.3583C68.0536 17.5443 67.7879 17.6977 67.477 17.8186C67.1661 17.9395 66.8051 18 66.394 18C65.8675 18 65.3962 17.9023 64.98 17.707C64.5639 17.5117 64.2354 17.2443 63.9948 16.9049C63.7541 16.5654 63.6338 16.1795 63.6338 15.747C63.6338 15.3471 63.714 14.9937 63.8744 14.6867C64.0349 14.3798 64.2731 14.1217 64.5889 13.9125C64.9048 13.6986 65.2959 13.5382 65.7622 13.4312C66.2335 13.3196 66.7725 13.2638 67.3792 13.2638H68.718Z" fill="#2E55A5"/>
<path d="M76.8512 10.3133V11.6386H72.1882V10.3133H76.8512ZM73.4367 8.45783H75.4298V15.6842C75.4298 15.9074 75.4624 16.0795 75.5275 16.2004C75.5927 16.3213 75.6905 16.4027 75.8209 16.4445C75.9512 16.4864 76.1067 16.5073 76.2872 16.5073C76.4175 16.5073 76.5379 16.5003 76.6482 16.4864C76.7585 16.4724 76.8512 16.4585 76.9264 16.4445L76.934 17.8256C76.7685 17.8768 76.5805 17.9186 76.3699 17.9512C76.1643 17.9837 75.9312 18 75.6704 18C75.2242 18 74.8331 17.9302 74.4972 17.7907C74.1612 17.6466 73.9005 17.4164 73.715 17.1002C73.5294 16.7793 73.4367 16.3562 73.4367 15.8307V8.45783Z" fill="#2E55A5"/>
<path d="M81.5474 17.8605H79.5468V9.61573C79.5468 9.0484 79.6646 8.57176 79.9003 8.1858C80.1359 7.79518 80.4719 7.49989 80.9081 7.29994C81.3443 7.09998 81.8582 7 82.4499 7C82.6455 7 82.831 7.01163 83.0065 7.03488C83.187 7.05813 83.365 7.09068 83.5405 7.13253L83.5029 8.53456C83.4076 8.51131 83.3023 8.49503 83.187 8.48573C83.0767 8.47643 82.9538 8.47178 82.8184 8.47178C82.5477 8.47178 82.317 8.51596 82.1265 8.60431C81.936 8.69267 81.7906 8.82287 81.6903 8.99493C81.595 9.16233 81.5474 9.36927 81.5474 9.61573V17.8605ZM83.1945 10.3133V11.6386H78.3209V10.3133H83.1945Z" fill="#2E55A5"/>
<path d="M84.8371 14.1636V14.0171C84.8371 13.4637 84.9223 12.9546 85.0928 12.4895C85.2633 12.0199 85.5115 11.613 85.8374 11.2689C86.1633 10.9248 86.5619 10.6574 87.0332 10.4667C87.5045 10.2714 88.041 10.1737 88.6427 10.1737C89.2544 10.1737 89.796 10.2714 90.2673 10.4667C90.7436 10.6574 91.1447 10.9248 91.4706 11.2689C91.7965 11.613 92.0447 12.0199 92.2152 12.4895C92.3857 12.9546 92.4709 13.4637 92.4709 14.0171V14.1636C92.4709 14.7123 92.3857 15.2215 92.2152 15.6912C92.0447 16.1562 91.7965 16.5631 91.4706 16.9119C91.1447 17.256 90.7461 17.5234 90.2748 17.714C89.8035 17.9047 89.2645 18 88.6578 18C88.0561 18 87.5171 17.9047 87.0407 17.714C86.5644 17.5234 86.1633 17.256 85.8374 16.9119C85.5115 16.5631 85.2633 16.1562 85.0928 15.6912C84.9223 15.2215 84.8371 14.7123 84.8371 14.1636ZM86.8226 14.0171V14.1636C86.8226 14.4938 86.8577 14.803 86.9279 15.0913C86.9981 15.3796 87.1059 15.6331 87.2513 15.8516C87.3967 16.0702 87.5848 16.2422 87.8154 16.3678C88.0511 16.4887 88.3319 16.5491 88.6578 16.5491C88.9787 16.5491 89.2544 16.4887 89.4851 16.3678C89.7157 16.2422 89.9038 16.0702 90.0492 15.8516C90.1996 15.6331 90.3099 15.3796 90.3801 15.0913C90.4503 14.803 90.4854 14.4938 90.4854 14.1636V14.0171C90.4854 13.6916 90.4503 13.387 90.3801 13.1034C90.3099 12.815 90.1996 12.5616 90.0492 12.3431C89.9038 12.1198 89.7132 11.9455 89.4776 11.8199C89.2469 11.6897 88.9686 11.6246 88.6427 11.6246C88.3218 11.6246 88.0461 11.6897 87.8154 11.8199C87.5848 11.9455 87.3967 12.1198 87.2513 12.3431C87.1059 12.5616 86.9981 12.815 86.9279 13.1034C86.8577 13.387 86.8226 13.6916 86.8226 14.0171Z" fill="#2E55A5"/>
<path d="M96.6707 11.8548V17.8605H94.6851V10.3133H96.5654L96.6707 11.8548ZM99.1451 10.2644L99.115 11.9803C99.0047 11.9617 98.8794 11.9478 98.739 11.9385C98.6036 11.9292 98.4757 11.9245 98.3554 11.9245C98.0495 11.9245 97.7813 11.9641 97.5506 12.0431C97.32 12.1175 97.127 12.2268 96.9715 12.371C96.8211 12.5151 96.7058 12.6918 96.6256 12.9011C96.5453 13.1057 96.5002 13.3382 96.4902 13.5986L96.0615 13.5498C96.0615 13.0708 96.1141 12.6267 96.2194 12.2175C96.3247 11.8083 96.4776 11.4502 96.6782 11.1433C96.8788 10.8364 97.1295 10.5992 97.4303 10.4318C97.7362 10.2598 98.0872 10.1737 98.4833 10.1737C98.5936 10.1737 98.7114 10.183 98.8367 10.2016C98.9671 10.2156 99.0699 10.2365 99.1451 10.2644Z" fill="#2E55A5"/>
<path d="M102.984 11.8618V17.8605H100.998V10.3133H102.871L102.984 11.8618ZM102.691 13.8148H102.081C102.081 13.2894 102.149 12.8057 102.284 12.364C102.425 11.9222 102.63 11.5386 102.901 11.2131C103.172 10.8829 103.505 10.6271 103.901 10.4458C104.303 10.2644 104.766 10.1737 105.293 10.1737C105.659 10.1737 105.995 10.2249 106.301 10.3272C106.606 10.4249 106.87 10.5806 107.09 10.7945C107.316 11.0038 107.489 11.2782 107.609 11.6176C107.73 11.9524 107.79 12.3547 107.79 12.8243V17.8605H105.804V13.0127C105.804 12.6593 105.749 12.3826 105.639 12.1826C105.533 11.9827 105.381 11.8432 105.18 11.7641C104.979 11.6804 104.739 11.6386 104.458 11.6386C104.147 11.6386 103.879 11.6967 103.653 11.8129C103.433 11.9245 103.25 12.0803 103.104 12.2803C102.964 12.4802 102.859 12.7104 102.788 12.9708C102.723 13.2312 102.691 13.5126 102.691 13.8148ZM107.639 13.473L106.82 13.6126C106.825 13.1382 106.895 12.6941 107.03 12.2803C107.166 11.8618 107.364 11.4967 107.624 11.1852C107.89 10.8689 108.218 10.6225 108.61 10.4458C109.006 10.2644 109.462 10.1737 109.978 10.1737C110.38 10.1737 110.741 10.2272 111.061 10.3342C111.387 10.4365 111.666 10.6016 111.896 10.8294C112.127 11.0526 112.302 11.3433 112.423 11.7013C112.548 12.0594 112.611 12.4965 112.611 13.0127V17.8605H110.61V13.0057C110.61 12.6383 110.555 12.357 110.445 12.1617C110.339 11.9664 110.187 11.8315 109.986 11.7571C109.785 11.6781 109.55 11.6386 109.279 11.6386C109.003 11.6386 108.763 11.6874 108.557 11.785C108.356 11.878 108.186 12.0082 108.046 12.1756C107.91 12.3431 107.807 12.5384 107.737 12.7616C107.672 12.9801 107.639 13.2173 107.639 13.473Z" fill="#2E55A5"/>
<path d="M138.092 9.24604L134.971 17.8605H132.782L136.874 7.7045H138.273L138.092 9.24604ZM140.702 17.8605L137.566 9.24604L137.378 7.7045H138.784L142.898 17.8605H140.702ZM140.559 14.0869V15.6005H134.685V14.0869H140.559Z" fill="#2E55A5"/>
<path d="M147 7.7045V17.8605H144.932V7.7045H147Z" fill="#2E55A5"/>
<path fill-rule="evenodd" clip-rule="evenodd" d="M123 21L123 6L124 6L124 21L123 21Z" fill="#2E55A5"/>
</svg>
